<svg width="135" height="156" viewBox="0 0 135 156" fill="none" xmlns="http://www.w3.org/2000/svg">
<path d="M67.2093 0L134.419 39V117L67.2093 156L0 117V39L67.2093 0Z" fill="#D5E3F6"/>
<path d="M28.0667 67.4841V91.5081L32.8666 94.7841L35 100.244L38.7333 105.704L43 111.164L47.8 115.532L50.4666 117.17H83L86.2 115.532L89.9333 112.256L94.2 107.342L99.5333 99.6981L101.667 94.2381L105.933 91.5081V67.4841L103.267 65.8461L100.6 59.2941L96.3333 53.8341V45.6441L83.5333 42.3681L80.8666 41.2761L73.4 39.0921L66.4666 38.5461L58.4666 39.0921L51 42.3681L37.6666 45.6441V53.8341L33.4 60.3861L30.7333 65.8461L28.0667 67.4841Z" fill="white"/>
<path d="M50.8387 116.54L50.9698 117.146C50.9088 117.234 50.8661 117.339 50.8661 117.457C50.8661 117.676 50.9883 117.861 51.1619 117.947C51.1587 117.946 51.1545 117.947 51.1511 117.945C44.2209 114.324 37.1327 105.534 32.6205 94.9819L34.1523 95.9025C38.4061 105.239 44.6537 112.968 50.8387 116.54Z" fill="#828282"/>
<path d="M32.5004 64.3494L32.3875 64.6209L31.0022 65.2987C31.0048 65.2914 31.003 65.2826 31.0064 65.2745L31.5721 63.9121C33.1137 60.1754 34.2277 57.4755 37.5748 53.6354C37.6107 53.5945 37.6543 53.5677 37.6978 53.5417L37.7102 55.0882C34.9436 58.4291 33.9026 60.9477 32.5004 64.3494Z" fill="#828282"/>
<path d="M52.5058 42.3317H52.3296C52.4048 42.2093 52.4357 42.0567 52.399 41.904C52.3304 41.6147 52.0546 41.4407 51.7831 41.5129L51.7354 41.5264C54.939 39.8164 60.6451 38.0015 67.1317 38.0015V39.0853C61.0287 39.0853 55.6567 40.7282 52.5058 42.3317Z" fill="#828282"/>
<path d="M67.1321 38.002C67.2531 38.002 67.376 38.0082 67.4971 38.011V38.1723C67.4051 38.0684 67.2766 38.002 67.1321 38.002Z" fill="#828282"/>
<path d="M67.4969 38.1714V38.9152C67.405 39.0198 67.2759 39.0849 67.1324 39.0849V38.002C67.2759 38.002 67.405 38.068 67.4969 38.1714Z" fill="#828282"/>
<path d="M48.1766 102.727L47.9025 103.004C47.707 103.203 47.6986 103.535 47.8849 103.746C47.9426 103.81 48.0136 103.85 48.088 103.876L48.0896 103.887C48.0621 103.877 48.0329 103.879 48.0052 103.864C43.4038 101.293 39.4422 97.8928 36.4467 93.9822V92.2393C39.367 96.3946 43.4147 100.01 48.1766 102.727Z" fill="#828282"/>
<path d="M40.4701 66.4774L40.157 66.3699C40.1828 66.3725 40.2061 66.3742 40.238 66.3778C40.3263 66.3877 40.4015 66.4271 40.4701 66.4774Z" fill="#828282"/>
<path d="M39.9512 67.4376C39.8768 67.4303 39.8235 67.4249 39.7507 67.4196L39.5509 67.4018C38.2115 67.2876 37.0502 67.8143 36.4467 68.3116V67.0276C36.7433 66.8571 37.0835 66.7037 37.4571 66.5813L39.9512 67.4376Z" fill="#828282"/>
<path d="M67.4972 70.2471H51.8803V70.5175H67.4972V70.2471Z" fill="#828282"/>
<path d="M51.3732 71.33C51.4793 71.33 51.5838 71.2942 51.6716 71.2265C51.7284 71.1817 51.7701 71.1228 51.8052 71.0596H67.4973V71.33H51.9907L56.3851 95.0071H55.9689C55.8394 95.0071 55.7341 95.0714 55.6463 95.1571C55.6413 95.1625 55.6355 95.1633 55.6312 95.1678L55.5679 95.2321L55.4207 95.3804L50.9336 71.2068L51.2178 71.3041C51.2687 71.3218 51.3215 71.33 51.3732 71.33Z" fill="#828282"/>
<path d="M51.8291 117.696C51.941 117.451 51.8574 117.166 51.6519 117.016L51.6735 116.916H67.4978V118H51.3737C51.5608 118 51.7413 117.889 51.8289 117.696" fill="#828282"/>
<path d="M50.8661 117.458C50.8661 117.339 50.9088 117.234 50.9697 117.145L51.0508 117.519C51.0774 117.641 51.1803 117.729 51.298 117.729H51.299C51.4159 117.729 51.5186 117.641 51.5455 117.517L51.6516 117.016C51.8579 117.166 51.9407 117.45 51.8286 117.696C51.741 117.888 51.5613 117.999 51.3732 117.999C51.3022 117.999 51.2304 117.981 51.1619 117.948C50.9882 117.861 50.8661 117.676 50.8661 117.458Z" fill="#828282"/>
<path d="M56.3248 95.1884C56.1417 94.9831 55.8451 94.9741 55.6464 95.1582C55.734 95.0716 55.8393 95.0073 55.9689 95.0073H67.4972V96.092H56.1477L56.3064 95.9296C56.5019 95.7295 56.5103 95.3973 56.3248 95.1884Z" fill="#828282"/>
<path d="M48.2404 103.927C48.3658 103.927 48.4769 103.862 48.5713 103.771C48.5729 103.768 48.5763 103.767 48.5789 103.765L48.5829 103.761L51.2952 116.248L55.4405 96.8078L56.1049 96.1345L51.6738 116.915H51.4992C51.2794 116.799 51.0588 116.668 50.8382 116.54L48.09 103.887C48.1402 103.904 48.1895 103.927 48.2404 103.927Z" fill="#828282"/>
<path d="M51.3742 116.916C51.205 116.916 51.0619 117.009 50.9697 117.146L50.8383 116.541C51.0593 116.668 51.2795 116.8 51.4997 116.916H51.3742Z" fill="#828282"/>
<path d="M48.5716 103.771C48.4778 103.863 48.3665 103.928 48.2401 103.928C48.1899 103.928 48.1396 103.904 48.0902 103.888L48.0878 103.876C48.1372 103.894 48.1883 103.908 48.2409 103.908C48.3599 103.908 48.477 103.863 48.5716 103.771Z" fill="#828282"/>
<path d="M51.499 116.916H51.6733L51.6517 117.017C51.6324 117.003 51.6182 116.983 51.5966 116.971C51.5641 116.955 51.5314 116.933 51.499 116.916Z" fill="#828282"/>
<path d="M51.4999 116.916C51.5325 116.933 51.5652 116.955 51.5978 116.971C51.6195 116.982 51.6337 117.003 51.653 117.017L51.5467 117.518C51.52 117.642 51.4169 117.729 51.299 117.729H51.298C51.1809 117.729 51.078 117.642 51.0511 117.52L50.9699 117.146C51.0619 117.009 51.2044 116.916 51.3743 116.916H51.4999Z" fill="#828282"/>
<path d="M57.7719 42.4507C57.7876 42.4742 57.7876 42.5028 57.7959 42.5296C57.7834 42.492 57.7688 42.4569 57.744 42.4292C57.7529 42.4382 57.7654 42.44 57.7719 42.4507Z" fill="#828282"/>
<path d="M48.659 46.0022L51.3251 45.0808L48.659 46.0022Z" fill="#828282"/>
<path d="M48.659 62.4567V62.3146L50.6201 60.4853C50.9534 53.3444 55.4388 45.5125 56.8851 43.1588L57.6371 42.8991C57.6973 42.8785 57.7442 42.834 57.7775 42.7812C57.7751 42.7847 57.7759 42.7883 57.7743 42.7911C57.7115 42.8856 51.4916 52.297 51.1589 60.6353C51.1557 60.7146 51.1222 60.7896 51.0663 60.8423L49.2313 62.554L48.6748 62.4556C48.669 62.4547 48.664 62.4567 48.659 62.4567Z" fill="#828282"/>
<path d="M48.3427 45.5001L51.619 44.3672L48.3435 45.5001H48.3427Z" fill="#828282"/>
<path d="M56.8846 43.1589L51.3246 45.0812L56.8846 43.1589Z" fill="#828282"/>
<path d="M57.8208 42.5771C57.8217 42.5853 57.8169 42.5906 57.8177 42.5985C57.8151 42.5746 57.8038 42.5523 57.7964 42.5291C57.8022 42.547 57.8184 42.5585 57.8208 42.5771Z" fill="#828282"/>
<path d="M57.5897 42.3461C57.5504 42.3408 57.5095 42.3326 57.4694 42.3461L51.6195 44.3675L55.8324 42.9112L51.1015 42.9058L47.8134 43.7139L52.0332 42.563C52.0548 42.5576 52.0715 42.5416 52.0907 42.5336C52.1058 42.5274 52.1216 42.53 52.1359 42.5221C52.2538 42.4586 52.3815 42.3952 52.506 42.3318H57.553C57.567 42.3318 57.5763 42.3444 57.5897 42.3461Z" fill="#828282"/>
<path d="M52.0911 42.5344C52.1905 42.4914 52.2739 42.4232 52.3298 42.3318H52.5061C52.3817 42.3954 52.253 42.4591 52.1362 42.5225C52.1219 42.5307 52.1061 42.5279 52.0911 42.5344Z" fill="#828282"/>
<path d="M56.8851 43.1591L51.3252 45.0814L48.6588 46.0028V45.7911C48.6588 45.6304 48.5369 45.5001 48.3865 45.5001H48.344L51.6194 44.368L57.4693 42.3457C57.5102 42.3324 57.5503 42.3403 57.5896 42.3457C57.6255 42.3519 57.6556 42.3645 57.6865 42.384C57.7081 42.3984 57.7274 42.4091 57.7442 42.4288C57.7693 42.4564 57.7843 42.4922 57.7967 42.5287C57.8042 42.552 57.816 42.5743 57.8184 42.5983C57.8218 42.6412 57.8092 42.6806 57.7951 42.7215C57.7875 42.7421 57.7883 42.7635 57.7775 42.7815C57.7442 42.834 57.6973 42.8788 57.6371 42.8994L56.8851 43.1591Z" fill="#828282"/>
<path d="M40.3053 61.6379C40.4523 61.6334 40.5694 61.5031 40.5652 61.345L40.5602 61.1191L46.085 62.3315L46.0866 62.6834L46.6046 62.6798C46.6046 62.7003 46.6189 62.7173 46.6147 62.7387C46.5888 62.8735 46.4777 62.9665 46.3532 62.9665C46.3357 62.9665 46.3181 62.9645 46.2998 62.9602L40.2451 61.6317C40.2201 61.6263 40.2074 61.6013 40.1858 61.5888C40.2225 61.6092 40.2552 61.6379 40.2987 61.6379H40.3053Z" fill="#828282"/>
<path d="M48.3866 46.0819C48.4159 46.0819 48.4436 46.0774 48.4711 46.0676L48.6595 46.0024V62.4564C48.4143 62.4225 48.1842 62.5878 48.1139 62.8404V46.0819H48.3866Z" fill="#828282"/>
<path d="M48.3026 45.5139C48.1907 45.5533 48.1139 45.665 48.1139 45.7908V46.0818H39.1264L41.2605 45.4998H48.3427L48.3026 45.5139Z" fill="#828282"/>
<path d="M48.3868 46.0825H48.1139V45.7911C48.1139 45.6652 48.1909 45.5535 48.3032 45.5142L48.3434 45.5007H48.3868C48.5375 45.5007 48.6598 45.6302 48.6598 45.7911V46.0029L48.4714 46.0681C48.4438 46.078 48.4161 46.0825 48.3868 46.0825Z" fill="#828282"/>
<path d="M46.0098 48.7946L40.2626 48.6001L40.3095 50.5866L40.0654 50.5706C39.9174 50.5661 39.7921 50.6794 39.7821 50.8365L39.7219 48.3125C39.7195 48.2339 39.748 48.1589 39.7997 48.1036C39.8515 48.0483 39.9208 48.008 39.9961 48.0206L46.283 48.2339C46.4259 48.2384 46.5352 48.3652 46.537 48.5161L46.008 48.5206L46.0098 48.7946Z" fill="#828282"/>
<path d="M40.0312 51.1388L40.3239 51.1583L40.3768 53.3736L40.1432 53.3476C39.9985 53.3279 39.8648 53.4449 39.8497 53.6011C39.8346 53.7573 39.9409 53.8977 40.0872 53.9146L40.39 53.9485L40.4402 56.0628L40.3382 56.0467C40.186 56.0234 40.0571 56.1324 40.0354 56.2878C40.0135 56.4431 40.1157 56.5878 40.2613 56.6109L40.4545 56.6413L40.503 58.7064L40.349 58.6761C40.1918 58.6494 40.0647 58.7492 40.037 58.9037C40.0103 59.0591 40.1057 59.2073 40.2505 59.2367L40.5173 59.2894L40.5607 61.1198L40.3533 61.0733C40.2053 61.042 40.068 61.1421 40.0378 61.2957C40.0286 61.3457 40.0487 61.3876 40.0629 61.4331C40.0547 61.4071 40.0336 61.3885 40.0328 61.3609L39.7818 50.8369C39.7726 50.9931 39.8848 51.129 40.0312 51.1388Z" fill="#828282"/>
<path d="M40.3529 61.0736L40.5615 61.1193L40.5665 61.3453C40.5705 61.5033 40.4534 61.6339 40.3061 61.6384H40.2993C40.2559 61.6384 40.2232 61.6097 40.1864 61.5891C40.1536 61.5713 40.1245 61.558 40.101 61.5275C40.0793 61.4999 40.0733 61.4686 40.0624 61.4336C40.0492 61.3882 40.0281 61.3453 40.0373 61.2962C40.0684 61.1424 40.2057 61.0414 40.3529 61.0736Z" fill="#828282"/>
<path d="M46.4072 62.4028L46.0851 62.3321L46.0743 60.3956C46.0825 60.3974 46.0926 60.3982 46.101 60.3982C46.2273 60.3982 46.3393 60.3026 46.3636 60.1661C46.3903 60.0116 46.2952 59.8625 46.1504 59.8332L46.0709 59.8171L46.0582 57.5198L46.1462 57.5333C46.1596 57.535 46.1721 57.5359 46.1847 57.5359C46.316 57.5359 46.4289 57.4349 46.449 57.2922C46.4706 57.1367 46.3694 56.992 46.2231 56.9689L46.055 56.9429L46.0416 54.5886L46.0725 54.5923C46.0817 54.5931 46.0918 54.594 46.101 54.594C46.2357 54.594 46.352 54.4851 46.367 54.3386C46.3813 54.1824 46.2751 54.0422 46.1285 54.0253L46.0382 54.0146L46.0239 51.5467L46.1671 51.5574C46.1729 51.5574 46.1787 51.5583 46.1847 51.5583C46.3243 51.5583 46.4423 51.4424 46.4516 51.2904C46.4608 51.1334 46.3486 50.9986 46.2022 50.9887L46.0215 50.9763L46.0089 48.7949L46.2666 48.8039C46.4104 48.8299 46.5369 48.6844 46.5409 48.5281C46.5419 48.5236 46.5377 48.5209 46.5377 48.5164H46.5409L46.6204 62.6803H46.6046C46.6021 62.55 46.5319 62.4304 46.4072 62.4026" fill="#828282"/>
<path d="M46.0852 62.3323L46.4074 62.4028C46.533 62.4305 46.6033 62.5503 46.6059 62.6807L46.0868 62.6844L46.0852 62.3323Z" fill="#828282"/>
<path d="M46.2666 48.8035L46.0097 48.7945L46.0081 48.5202L46.5379 48.5166C46.5379 48.5211 46.5421 48.5239 46.5421 48.5273C46.5379 48.6847 46.4107 48.8294 46.2666 48.8035Z" fill="#828282"/>
<path fill-rule="evenodd" clip-rule="evenodd" d="M46.0243 51.5464L40.275 51.1547L40.3089 50.5867L46.0582 50.9784L46.0243 51.5464Z" fill="#828282"/>
<path d="M40.066 50.5702L40.3104 50.5871L40.3238 51.159L40.0309 51.1393C39.8852 51.1294 39.7729 50.9937 39.7821 50.8374V50.8363C39.7914 50.6791 39.9178 50.5657 40.066 50.5702Z" fill="#828282"/>
<path d="M46.2026 50.9885C46.3491 50.9984 46.4612 51.1341 46.4519 51.2904C46.4427 51.4424 46.3248 51.5584 46.1849 51.5584C46.1791 51.5584 46.1733 51.5576 46.1674 51.5576L46.025 51.5469L46.0218 50.9761L46.2026 50.9885Z" fill="#828282"/>
<path d="M40.376 53.3738L46.0388 54.0147L46.042 54.5879L40.3903 53.9487L40.376 53.3735V53.3738Z" fill="#828282"/>
<path d="M40.0878 53.9148C39.9411 53.8978 39.8348 53.7576 39.8499 53.6013C39.865 53.445 39.999 53.3279 40.1438 53.3476L40.3773 53.3744L40.3907 53.9489L40.0878 53.9148Z" fill="#828282"/>
<path d="M46.1288 54.0254C46.2749 54.0423 46.3812 54.1825 46.3669 54.3391C46.3519 54.4855 46.2359 54.5944 46.1014 54.5944C46.0921 54.5944 46.0821 54.5936 46.0729 54.5927L46.042 54.5891L46.0386 54.0146L46.1288 54.0254Z" fill="#828282"/>
<path d="M40.4398 56.0625L46.0548 56.9428L46.0582 57.5196L40.454 56.6411L40.4398 56.0625Z" fill="#828282"/>
<path d="M40.2612 56.6113C40.1155 56.588 40.0143 56.4432 40.0352 56.2878C40.0571 56.1323 40.1859 56.0234 40.3384 56.0466L40.4404 56.0626L40.4547 56.6416L40.2612 56.6113Z" fill="#828282"/>
<path d="M46.2232 56.9688C46.3686 56.992 46.4698 57.1369 46.4487 57.2924C46.4287 57.4343 46.3152 57.5362 46.185 57.5362C46.1723 57.5362 46.1591 57.5353 46.1465 57.5336L46.0579 57.5201L46.0547 56.9429L46.2232 56.9688Z" fill="#828282"/>
<path d="M40.5162 59.2896L40.5019 58.7065L46.0703 59.8172L46.0735 60.3957C46.0669 60.3949 46.0592 60.3949 46.0518 60.3932L40.5162 59.2896Z" fill="#828282"/>
<path d="M40.2499 59.2371C40.1052 59.2075 40.0098 59.0593 40.0367 58.9039C40.0642 58.7501 40.1915 58.6491 40.3487 58.6759L40.5035 58.7064L40.5168 59.2907L40.2499 59.2371Z" fill="#828282"/>
<path d="M46.1504 59.8332C46.2949 59.8626 46.3901 60.0118 46.3634 60.1664C46.3392 60.3032 46.2273 60.3986 46.1011 60.3986C46.0929 60.3986 46.0828 60.3978 46.0744 60.3961L46.071 59.8171L46.1504 59.8332Z" fill="#828282"/>
<path d="M51.8809 63.7504V63.4789C51.8809 63.3791 51.849 63.2897 51.804 63.2085H67.4977V63.7504H51.8809Z" fill="#828282"/>
<path d="M51.8807 70.5175L67.4976 70.5173V71.0595H51.8047C51.8506 70.9772 51.8807 70.887 51.8807 70.7888V70.5173V70.5175Z" fill="#828282"/>
<path d="M51.4551 42.2817C51.4652 42.3031 51.486 42.3119 51.4986 42.3316H51.0406L38.0819 45.5075C38.0508 45.5154 38.0341 45.5422 38.0083 45.5593C37.9898 45.5718 37.9647 45.569 37.9489 45.5861C37.9439 45.5923 37.9455 45.6022 37.9405 45.6084C37.913 45.6431 37.9046 45.6851 37.8946 45.7297C37.8895 45.753 37.8695 45.77 37.8703 45.794L37.9331 53.4643C37.8502 53.4671 37.7718 53.4973 37.6982 53.5421L37.6347 45.7959C37.6331 45.5458 37.7911 45.3279 38.0175 45.2656L51.7351 41.5264C51.7174 41.5362 51.6984 41.545 51.6807 41.5549C51.4301 41.6888 51.3298 42.0147 51.4551 42.2817Z" fill="#828282"/>
<path d="M38.2652 61.1727H38.2678C38.4182 61.1719 38.5393 61.0405 38.5377 60.8789L38.4166 46.082H39.1267L38.653 46.2106L38.7725 60.8772C38.7733 61.0486 38.6989 61.2102 38.571 61.3146C38.444 61.4174 38.2778 61.4496 38.1232 61.4022L36.6041 60.9271V65.1502L40.157 66.3699C40.0058 66.3538 39.9381 66.3476 39.8286 66.3386L39.633 66.3225C38.8359 66.2537 38.0973 66.3707 37.4572 66.5816L36.4471 66.2342V62.6352L35.589 63.0547V60.204C35.589 60.0334 35.665 59.8727 35.7927 59.77C35.9207 59.6674 36.0853 59.6353 36.2389 59.6843L37.7522 60.1566L37.7105 55.0889C37.7857 54.9978 37.8659 54.905 37.9435 54.8131L37.9928 60.8843C37.9944 61.0441 38.1166 61.1727 38.2652 61.1727Z" fill="#828282"/>
<path d="M51.1205 70.2466H50.7561L50.9342 71.2064L39.9513 67.4378C39.9998 67.4423 40.055 67.4477 40.136 67.4565C40.4083 67.4878 40.664 67.2701 40.6917 66.9718C40.7107 66.7682 40.6173 66.5852 40.4701 66.4772L50.8664 70.0458V63.9397L48.5101 63.5255C48.2335 63.4762 48.0464 63.1977 48.0923 62.9022C48.0955 62.8799 48.109 62.8621 48.114 62.8407V62.9549C48.114 63.0254 48.1441 63.0852 48.185 63.1379C48.1968 63.1531 48.2101 63.161 48.2243 63.1737C48.2419 63.1889 48.2536 63.2092 48.2736 63.2191C48.3103 63.236 48.3488 63.245 48.3863 63.245C48.4507 63.245 48.5151 63.221 48.566 63.1737L49.2312 62.554L51.4556 62.945C51.6084 62.9718 51.7295 63.0736 51.8039 63.2084H51.1205V70.2466Z" fill="#828282"/>
<path d="M51.8805 63.7507H51.6267V70.2471H51.8805V63.7507Z" fill="#828282"/>
<path d="M40.5409 45.5001L47.8128 43.7136L41.2603 45.5001H40.5409Z" fill="#828282"/>
<path d="M37.9434 54.8135C37.8658 54.9054 37.7857 54.9982 37.7106 55.0884L37.698 53.5421C37.7715 53.4965 37.8498 53.4671 37.9325 53.4644L37.9434 54.8135Z" fill="#828282"/>
<path d="M52.399 41.9038C52.4356 42.0566 52.4048 42.2091 52.3296 42.3315H51.4981C51.4855 42.3118 51.4646 42.303 51.4546 42.2816C51.3293 42.0146 51.4295 41.6887 51.6802 41.5539C51.6979 41.5449 51.7179 41.535 51.7354 41.526L51.7831 41.5127C52.0546 41.4403 52.3296 41.6145 52.399 41.9038Z" fill="#828282"/>
<path d="M40.6916 66.9713C40.6639 67.2693 40.4083 67.4881 40.1359 67.456C40.0549 67.4472 39.9998 67.4418 39.9512 67.4373L37.4569 66.5811C38.0979 66.3704 38.8356 66.2534 39.6328 66.3222L39.8283 66.3391C39.9386 66.3479 40.0056 66.3533 40.1568 66.3694L40.47 66.4765C40.6172 66.5856 40.7099 66.7677 40.6916 66.9713Z" fill="#828282"/>
<path d="M51.8807 70.2471H51.6267V70.5177H51.8807V70.2471Z" fill="#828282"/>
<path d="M51.1203 70.2468V71.0602H51.8045C51.7702 71.1228 51.7285 71.1817 51.6718 71.2263C51.5839 71.2951 51.4795 71.3298 51.3734 71.3298C51.3216 71.3298 51.2689 71.3219 51.218 71.3049L50.934 71.2066L50.7559 70.2468H51.1203Z" fill="#828282"/>
<path d="M48.3863 63.2455C48.5368 63.2455 48.659 63.1151 48.659 62.9543V62.4567C48.6648 62.4567 48.669 62.4549 48.6748 62.4558L49.2317 62.554L48.5661 63.1741C48.5151 63.2215 48.4507 63.2455 48.3863 63.2455Z" fill="#828282"/>
<path d="M48.2734 63.2196C48.2534 63.2097 48.2408 63.1884 48.2242 63.1741C48.27 63.2125 48.3225 63.2454 48.3857 63.2454C48.3483 63.2454 48.3091 63.2365 48.2734 63.2196Z" fill="#828282"/>
<path d="M52.0909 42.5334C52.0709 42.5416 52.055 42.5576 52.0332 42.563L47.8126 43.7139L40.5407 45.5003H38.1417C38.0915 45.5003 38.0506 45.5316 38.0081 45.5593C38.0332 45.5423 38.0506 45.5147 38.0807 45.5076L51.0405 42.3318H51.4985C51.5946 42.4826 51.7442 42.5799 51.9078 42.5799C51.9698 42.5799 52.0308 42.5585 52.0909 42.5336" fill="#828282"/>
<path d="M51.9082 42.5803C51.7442 42.5803 51.5947 42.483 51.4976 42.332H52.3296C52.2744 42.4232 52.1907 42.4911 52.0914 42.534C52.0312 42.5589 51.97 42.5803 51.9082 42.5803Z" fill="#828282"/>
<path d="M38.1424 46.0817H38.4177L38.5389 60.8795C38.5405 61.0402 38.4193 61.1715 38.2687 61.1724H38.2653C38.1173 61.1724 37.995 61.0438 37.9934 60.8848L37.944 54.8136C38.0671 54.6681 38.1876 54.5235 38.3173 54.3744C38.5088 54.1556 38.497 53.8127 38.2922 53.6092C38.1908 53.5082 38.0613 53.4609 37.9332 53.4645L37.8697 45.7933C37.8697 45.7691 37.8888 45.7521 37.8948 45.729C37.8872 45.762 37.8679 45.7888 37.8713 45.8237C37.8872 45.9701 38.0034 46.0817 38.1424 46.0817Z" fill="#828282"/>
<path d="M37.9487 45.5859C37.9644 45.5689 37.9894 45.5717 38.0078 45.5591C37.9844 45.5751 37.9579 45.5859 37.9403 45.6081C37.9453 45.6019 37.9437 45.5921 37.9487 45.5859Z" fill="#828282"/>
<path d="M38.3171 54.3744C38.1874 54.5236 38.0662 54.6682 37.9431 54.8137L37.9323 53.4637C38.0603 53.4612 38.1909 53.5083 38.292 53.6092C38.497 53.8128 38.5087 54.1556 38.3171 54.3744Z" fill="#828282"/>
<path d="M48.6602 62.4563V62.9548C48.6602 63.1157 48.5379 63.2452 48.3872 63.2452C48.3237 63.2452 48.2709 63.213 48.2248 63.1736C48.2098 63.1611 48.1971 63.1532 48.1855 63.138C48.1445 63.0861 48.1143 63.0254 48.1143 62.9548V62.8403C48.1847 62.5867 48.4149 62.4214 48.6602 62.4563Z" fill="#828282"/>
<path d="M38.1419 45.5H41.2603L39.1263 46.0814H38.1419C38.0033 46.0814 37.887 45.9706 37.8712 45.8234C37.868 45.7893 37.887 45.7616 37.8946 45.7295C37.9039 45.6849 37.9121 45.6429 37.9406 45.6082C37.9582 45.5857 37.9849 45.575 38.0083 45.5589C38.0509 45.5321 38.0918 45.5 38.1419 45.5Z" fill="#828282"/>
<path d="M51.8818 63.7504H51.6274V70.2468H51.1205V63.2085H51.8049C51.8501 63.2897 51.8818 63.3791 51.8818 63.4789V63.7504Z" fill="#828282"/>
<path d="M51.8823 70.5179V70.7893C51.8823 70.8875 51.8522 70.9778 51.8061 71.0602H51.1205V70.2471H51.6277V70.5177H51.8823V70.5179Z" fill="#828282"/>
<path d="M31.2628 65.9911C31.3306 66.0232 31.4008 66.0384 31.47 66.0384C31.6631 66.0384 31.8486 65.9189 31.933 65.7179L32.3874 64.6216L35.5894 63.0554V65.5447C35.5894 65.7804 35.7314 65.9893 35.9412 66.0607L36.4475 66.2349V67.0277C36.1919 67.175 35.9671 67.3322 35.7808 67.4902C35.5628 67.6768 35.5259 68.0179 35.7005 68.2517C35.8 68.3867 35.948 68.4561 36.0966 68.4561C36.2077 68.4561 36.319 68.4178 36.4124 68.3383C36.4225 68.3295 36.4367 68.3205 36.4475 68.3126V92.2396C36.4151 92.1941 36.3792 92.1502 36.3465 92.1048C36.2245 91.9271 36.0206 91.8556 35.8327 91.8995C35.8193 91.8084 35.7791 91.7227 35.6913 91.6852L35.4324 91.5761V72.3901L35.6504 72.3411C35.7876 72.3106 35.876 72.1668 35.8467 72.0205C35.8185 71.8739 35.6823 71.7794 35.5469 71.8116L35.4324 71.8364V64.3233L29.0134 67.4642V66.3545L28.06 66.7385L31.0021 65.2992C30.9035 65.567 31.0148 65.8724 31.2628 65.9911Z" fill="#828282"/>
<path d="M35.4323 95.428V92.1585L35.4925 92.1836C35.4089 92.3612 35.4147 92.58 35.5326 92.7495C35.8234 93.1673 36.135 93.5753 36.4474 93.9825V97.2798L34.1523 95.9022C33.9217 95.3958 33.6919 94.8878 33.4729 94.3709C33.356 94.0986 33.0552 93.9816 32.8011 94.1022C32.5454 94.2254 32.4335 94.5469 32.548 94.8192C32.5721 94.8745 32.5971 94.9281 32.6206 94.9825L29.0135 92.8174V91.5737L35.4323 95.428Z" fill="#828282"/>
<path d="M32.8003 94.1017C33.0544 93.9812 33.356 94.0982 33.4721 94.3715C33.6911 94.8874 33.9209 95.3955 34.1523 95.9027L32.6208 94.9822C32.5973 94.9286 32.5715 94.8742 32.548 94.8195C32.4327 94.5463 32.5456 94.226 32.8003 94.1017Z" fill="#828282"/>
<path d="M31.9333 65.7176C31.8481 65.9192 31.6634 66.0379 31.4704 66.0379C31.4003 66.0379 31.3301 66.0229 31.2631 65.9906C31.0142 65.8719 30.9039 65.5676 31.0024 65.2987L32.3879 64.6211L31.9333 65.7174V65.7176Z" fill="#828282"/>
<path d="M35.5984 92.2077C35.6995 92.2077 35.7947 92.1423 35.834 92.0362C35.8507 91.9906 35.8383 91.9452 35.8324 91.8987C36.0203 91.855 36.2243 91.9272 36.347 92.104C36.3789 92.1505 36.4148 92.1933 36.4473 92.2387V93.9817C36.1348 93.5746 35.8232 93.1664 35.5324 92.7485C35.4137 92.579 35.4079 92.3611 35.4923 92.1835L35.5056 92.1888C35.5357 92.2012 35.5667 92.2074 35.5984 92.2074" fill="#828282"/>
<path d="M36.4127 68.3381C36.319 68.4176 36.2079 68.4559 36.0968 68.4559C35.948 68.4559 35.8 68.3863 35.7008 68.2515C35.5261 68.0175 35.562 67.6766 35.781 67.49C35.9673 67.3318 36.1921 67.1748 36.4478 67.0273V68.3121C36.437 68.3203 36.4227 68.3291 36.4127 68.3381Z" fill="#828282"/>
<path d="M36.4473 66.2343L35.9417 66.0603C35.732 65.989 35.589 65.7801 35.589 65.5452V63.0551L36.4473 62.6355V66.2343Z" fill="#828282"/>
<path d="M28.0594 66.7385L27.9984 66.7679V92.2075L29.0138 92.8173V92.8458L27.4503 91.9441V66.983L28.0594 66.7385Z" fill="#828282"/>
<path d="M27.9985 66.7681L28.0595 66.7385L29.013 66.3547V73.2749L28.4539 73.4001C28.317 73.4303 28.2283 73.5749 28.2576 73.7215C28.2827 73.8481 28.388 73.9366 28.5057 73.9366C28.5233 73.9366 28.54 73.9338 28.5576 73.9304L29.013 73.8286V88.8683L28.5985 88.6943C28.4698 88.6416 28.3212 88.7076 28.2701 88.8469C28.2191 88.9853 28.2819 89.1435 28.413 89.1979L29.013 89.4514V92.8173L27.9985 92.2077V66.7681Z" fill="#828282"/>
<path d="M35.4323 92.1577L29.0135 89.4516V88.8677L35.4323 91.5758V92.1577Z" fill="#828282"/>
<path d="M35.6908 91.6849C35.7784 91.7224 35.8184 91.8081 35.8319 91.8993C35.7634 91.9162 35.6967 91.9447 35.6374 91.9921C35.5723 92.044 35.5264 92.112 35.4922 92.1843L35.4321 92.1583V91.5759L35.6908 91.6849Z" fill="#828282"/>
<path d="M35.832 91.8994C35.8378 91.9459 35.8502 91.9914 35.8336 92.0362C35.7943 92.1423 35.6991 92.2086 35.5981 92.2086C35.5672 92.2086 35.5355 92.2024 35.5055 92.1897L35.492 92.1835C35.5263 92.1113 35.5722 92.0441 35.6373 91.9923C35.6967 91.9451 35.7634 91.9164 35.832 91.8994Z" fill="#828282"/>
<path d="M28.4137 89.1982C28.2823 89.1429 28.2197 88.9857 28.2707 88.8464C28.3217 88.7079 28.4708 88.6416 28.5996 88.6944L29.0148 88.8687V89.4521L28.4137 89.1982Z" fill="#828282"/>
<path d="M35.4323 72.3899L29.0135 73.8282V73.2755L35.4323 71.8364V72.3899Z" fill="#828282"/>
<path d="M35.5468 71.811C35.6824 71.7796 35.8188 71.8736 35.8471 72.02C35.8765 72.1665 35.7879 72.3112 35.6505 72.3416L35.4321 72.3899V71.8369L35.5468 71.811Z" fill="#828282"/>
<path d="M28.5581 73.9311C28.5406 73.9347 28.5238 73.9373 28.5063 73.9373C28.3881 73.9373 28.2827 73.8488 28.2576 73.722C28.2284 73.5756 28.317 73.4308 28.4544 73.4004L29.0144 73.2754V73.8292L28.5581 73.9311Z" fill="#828282"/>
<path d="M56.1479 96.0913L56.1042 96.135L56.1135 96.0913H56.1479Z" fill="#828282"/>
<path d="M55.5527 96.0914H55.5928L55.4398 96.8084L48.5832 103.762L48.5822 103.758C48.6199 103.719 48.6642 103.688 48.6901 103.636C48.8196 103.371 48.7236 103.043 48.4761 102.905C48.3742 102.847 48.2774 102.784 48.1761 102.727L55.4205 95.3806L55.5527 96.0914Z" fill="#828282"/>
<path d="M48.6898 103.636C48.664 103.688 48.6197 103.719 48.5822 103.758L48.4877 103.322C48.456 103.178 48.3231 103.081 48.1835 103.121C48.0465 103.154 47.9621 103.3 47.9938 103.445L48.0874 103.876C48.013 103.849 47.9428 103.81 47.8853 103.746C47.699 103.536 47.7072 103.203 47.9027 103.004L48.1769 102.726C48.2779 102.784 48.374 102.847 48.4761 102.904C48.7241 103.043 48.8202 103.371 48.6898 103.636Z" fill="#828282"/>
<path d="M55.4611 95.5494C55.4611 95.7057 55.5253 95.8443 55.6234 95.9435L55.5926 96.0917H55.5518L55.4211 95.3815L55.5668 95.2332C55.5053 95.3226 55.4611 95.4279 55.4611 95.5494Z" fill="#828282"/>
<path d="M56.217 95.6085C56.247 95.4628 56.1618 95.3182 56.0256 95.2843C55.8876 95.2513 55.7539 95.3432 55.7214 95.4887L55.6253 95.9432C55.5259 95.8442 55.4615 95.705 55.4615 95.5496C55.4615 95.4281 55.5058 95.3227 55.5684 95.2325C55.5892 95.2022 55.6211 95.1834 55.647 95.1575C55.8459 94.9736 56.1425 94.9826 56.3254 95.1879C56.511 95.3977 56.5027 95.7298 56.3072 95.9289L56.1476 96.0915H56.1141L56.217 95.6085Z" fill="#828282"/>
<path d="M55.6464 95.1575C55.6205 95.1836 55.589 95.2023 55.5682 95.2329L55.6305 95.1682C55.6354 95.1637 55.6414 95.1629 55.6464 95.1575Z" fill="#828282"/>
<path d="M55.5935 96.0913H56.1151L56.1058 96.1351L55.4402 96.8087L55.5935 96.0913Z" fill="#828282"/>
<path d="M48.1838 103.121C48.3237 103.081 48.4569 103.178 48.4886 103.323L48.5833 103.759C48.579 103.762 48.5756 103.768 48.5714 103.772C48.4778 103.862 48.3596 103.909 48.2417 103.909C48.1889 103.909 48.1378 103.893 48.0876 103.876L47.9938 103.446C47.962 103.3 48.0466 103.154 48.1838 103.121Z" fill="#828282"/>
<path d="M55.9688 96.0919H55.593L55.6247 95.9431C55.7149 96.0337 55.8351 96.0919 55.9688 96.0919Z" fill="#828282"/>
<path d="M55.7218 95.4889C55.7543 95.3433 55.8883 95.2504 56.0256 95.2843C56.163 95.3182 56.2484 95.4629 56.2182 95.6087L56.1152 96.092H55.9695C55.8355 96.092 55.716 96.0331 55.6245 95.9437L55.7218 95.4889Z" fill="#828282"/>
<path d="M84.1597 116.54L84.0286 117.146C84.0887 117.234 84.132 117.339 84.132 117.457C84.132 117.676 84.0093 117.861 83.8354 117.947C83.8389 117.946 83.8431 117.947 83.8471 117.945C90.7775 114.324 97.8647 105.534 102.377 94.9819L100.846 95.9025C96.5915 105.239 90.3445 112.968 84.1597 116.54Z" fill="#828282"/>
<path d="M102.497 64.3494L102.61 64.6209L103.995 65.2987C103.993 65.2914 103.994 65.2826 103.99 65.2745L103.425 63.9121C101.884 60.1754 100.77 57.4755 97.4217 53.6354C97.3867 53.5945 97.3425 53.5677 97.299 53.5417L97.2874 55.0882C100.053 58.4291 101.094 60.9477 102.497 64.3494Z" fill="#828282"/>
<path d="M82.4918 42.3317H82.6681C82.5929 42.2093 82.562 42.0567 82.5987 41.904C82.6681 41.6147 82.9422 41.4407 83.2146 41.5129L83.2631 41.5264C80.0595 39.8164 74.3524 38.0015 67.8658 38.0015V39.0853C73.9689 39.0853 79.3408 40.7282 82.4918 42.3317Z" fill="#828282"/>
<path d="M67.8655 38.002C67.7445 38.002 67.6216 38.0082 67.4998 38.011V38.1723C67.5924 38.0684 67.7202 38.002 67.8655 38.002Z" fill="#828282"/>
<path d="M67.4994 38.1714V38.9152C67.5918 39.0198 67.7203 39.0849 67.8647 39.0849V38.002C67.7203 38.002 67.5918 38.068 67.4994 38.1714Z" fill="#828282"/>
<path d="M86.8213 102.727L87.0944 103.004C87.2907 103.203 87.2983 103.535 87.1128 103.746C87.0543 103.81 86.9841 103.85 86.9097 103.876L86.9081 103.887C86.9358 103.877 86.9648 103.879 86.9917 103.864C91.5941 101.293 95.5547 97.8928 98.5501 93.9822V92.2393C95.6307 96.3946 91.5822 100.01 86.8213 102.727Z" fill="#828282"/>
<path d="M94.5263 66.4774L94.8401 66.3699C94.8143 66.3725 94.79 66.3742 94.7584 66.3778C94.6706 66.3877 94.5946 66.4271 94.5263 66.4774Z" fill="#828282"/>
<path d="M95.0465 67.4376C95.1207 67.4303 95.1734 67.4249 95.247 67.4196L95.4465 67.4018C96.7861 67.2876 97.9475 67.8143 98.5499 68.3116V67.0276C98.2541 66.8571 97.9142 66.7037 97.5398 66.5813L95.0465 67.4376Z" fill="#828282"/>
<path d="M83.1169 70.2471H67.5V70.5175H83.1169V70.2471Z" fill="#828282"/>
<path d="M83.624 71.33C83.5179 71.33 83.4134 71.2942 83.3256 71.2265C83.2689 71.1817 83.2271 71.1228 83.1921 71.0596H67.4989V71.33H83.0066L78.6122 95.0071H79.0283C79.157 95.0071 79.2631 95.0714 79.3507 95.1571C79.3558 95.1625 79.3618 95.1633 79.3658 95.1678L79.4294 95.2321L79.5755 95.3804L84.0626 71.2068L83.7794 71.3041C83.7285 71.3218 83.6758 71.33 83.624 71.33Z" fill="#828282"/>
<path d="M83.1688 117.696C83.0561 117.451 83.1405 117.166 83.3451 117.016L83.3242 116.916H67.4994V118H83.6242C83.4363 118 83.2558 117.889 83.1688 117.696Z" fill="#828282"/>
<path d="M84.1319 117.458C84.1319 117.339 84.0884 117.234 84.0282 117.145L83.9462 117.519C83.9203 117.641 83.8176 117.729 83.6997 117.729H83.6989C83.5812 117.729 83.4783 117.641 83.4525 117.517L83.3456 117.016C83.14 117.166 83.0564 117.45 83.1691 117.696C83.2561 117.888 83.4366 117.999 83.6245 117.999C83.6955 117.999 83.7667 117.981 83.8359 117.948C84.0097 117.861 84.1319 117.676 84.1319 117.458Z" fill="#828282"/>
<path d="M78.6727 95.1884C78.8556 94.9831 79.1524 94.9741 79.3512 95.1582C79.2635 95.0716 79.1574 95.0073 79.0287 95.0073H67.4994V96.092H78.8498L78.6902 95.9296C78.4947 95.7295 78.4864 95.3973 78.6727 95.1884Z" fill="#828282"/>
<path d="M86.7576 103.927C86.6323 103.927 86.5212 103.862 86.4268 103.771C86.425 103.768 86.4217 103.767 86.4191 103.765L86.4149 103.761L83.7026 116.248L79.5573 96.8078L78.8931 96.1345L83.3242 116.915H83.4989C83.7187 116.799 83.9393 116.668 84.1599 116.54L86.9081 103.887C86.8579 103.904 86.8086 103.927 86.7576 103.927Z" fill="#828282"/>
<path d="M83.6246 116.916C83.7936 116.916 83.9368 117.009 84.0288 117.146L84.1613 116.541C83.9402 116.668 83.7192 116.8 83.499 116.916H83.6246Z" fill="#828282"/>
<path d="M86.4274 103.771C86.521 103.863 86.6325 103.928 86.7589 103.928C86.8091 103.928 86.8594 103.904 86.9088 103.888L86.9112 103.876C86.861 103.894 86.8099 103.908 86.7581 103.908C86.6384 103.908 86.521 103.863 86.4274 103.771Z" fill="#828282"/>
<path d="M83.4984 116.916H83.3238L83.3446 117.017C83.3655 117.003 83.3789 116.983 83.4016 116.971C83.4332 116.955 83.4657 116.933 83.4984 116.916Z" fill="#828282"/>
<path d="M83.4989 116.916C83.4661 116.933 83.4336 116.955 83.4018 116.971C83.3791 116.982 83.3657 117.003 83.3448 117.017L83.452 117.518C83.4788 117.642 83.5818 117.729 83.6998 117.729H83.7006C83.8187 117.729 83.9216 117.642 83.9475 117.52L84.0297 117.146C83.9366 117.009 83.7944 116.916 83.6244 116.916H83.4989Z" fill="#828282"/>
<path d="M77.2253 42.4507C77.2085 42.4742 77.2093 42.5028 77.2011 42.5298C77.2135 42.4921 77.2286 42.457 77.2528 42.4292C77.2444 42.4382 77.2328 42.44 77.2253 42.4507Z" fill="#828282"/>
<path d="M86.3391 46.0022L83.6726 45.0808L86.3391 46.0022Z" fill="#828282"/>
<path d="M86.3392 62.4567V62.3146L84.3774 60.4853C84.0449 53.3444 79.5594 45.5125 78.1121 43.1588L77.3609 42.8991C77.3007 42.8785 77.254 42.834 77.2205 42.7812C77.2231 42.7847 77.2215 42.7883 77.2239 42.7911C77.2857 42.8856 83.5066 52.297 83.8393 60.6353C83.8425 60.7146 83.876 60.7896 83.932 60.8423L85.7669 62.554L86.3234 62.4556C86.3284 62.4547 86.3334 62.4567 86.3392 62.4567Z" fill="#828282"/>
<path d="M86.6539 45.5001L83.3784 44.3672L86.6539 45.5001Z" fill="#828282"/>
<path d="M78.1122 43.1589L83.6721 45.0812L78.1122 43.1589Z" fill="#828282"/>
<path d="M77.1755 42.5771C77.1747 42.5853 77.1804 42.5906 77.1796 42.5985C77.1821 42.5746 77.1927 42.5523 77.1999 42.5291C77.1942 42.547 77.1788 42.5585 77.1755 42.5771Z" fill="#828282"/>
<path d="M77.4077 42.3461C77.4479 42.3408 77.488 42.3326 77.5289 42.3461L83.3788 44.3675L79.1649 42.9112L83.896 42.9058L87.184 43.7139L82.9643 42.563C82.9426 42.5576 82.9258 42.5416 82.9057 42.5336C82.8907 42.5274 82.8756 42.53 82.8616 42.5221C82.7437 42.4586 82.6159 42.3952 82.4914 42.3318H77.4444C77.4302 42.3318 77.421 42.3444 77.4077 42.3461Z" fill="#828282"/>
<path d="M82.9058 42.5344C82.8072 42.4911 82.7228 42.4232 82.6677 42.3318H82.4915C82.616 42.3954 82.7438 42.4589 82.8615 42.5225C82.8757 42.5307 82.8907 42.5279 82.9058 42.5344Z" fill="#828282"/>
<path d="M78.1116 43.1591L83.6716 45.0814L86.3387 46.0028V45.7911C86.3387 45.6304 86.4601 45.5001 86.6105 45.5001H86.6538L83.3784 44.368L77.5285 42.3457C77.4876 42.3324 77.4474 42.3403 77.4073 42.3457C77.3714 42.3519 77.3422 42.3645 77.3113 42.384C77.2894 42.3984 77.2704 42.4091 77.2527 42.4288C77.2277 42.4564 77.2134 42.4922 77.2002 42.5287C77.1926 42.552 77.1817 42.5743 77.1791 42.5983C77.1759 42.6412 77.1884 42.6806 77.2026 42.7215C77.2092 42.7421 77.2092 42.7635 77.2202 42.7815C77.2535 42.834 77.2995 42.8788 77.3606 42.8994L78.1116 43.1591Z" fill="#828282"/>
<path d="M94.6917 61.6379C94.5445 61.6334 94.4284 61.5031 94.4318 61.345L94.4376 61.1191L88.9128 62.3315L88.9102 62.6834L88.393 62.6798C88.393 62.7003 88.378 62.7173 88.3822 62.7387C88.4081 62.8735 88.5202 62.9665 88.6445 62.9665C88.6614 62.9665 88.6796 62.9645 88.6973 62.9602L94.7519 61.6317C94.7778 61.6263 94.7894 61.6013 94.812 61.5888C94.7751 61.6092 94.7427 61.6379 94.6983 61.6379H94.6917Z" fill="#828282"/>
<path d="M86.6108 46.0819C86.5825 46.0819 86.5548 46.0774 86.5273 46.0676L86.339 46.0024V62.4564C86.5841 62.4225 86.8134 62.5878 86.8837 62.8404V46.0819H86.6108Z" fill="#828282"/>
<path d="M86.6948 45.5139C86.8069 45.5533 86.8837 45.665 86.8837 45.7908V46.0818H95.8704L93.7371 45.4998H86.6539L86.6948 45.5139Z" fill="#828282"/>
<path d="M86.611 46.0825H86.8841V45.7911C86.8841 45.6652 86.8069 45.5535 86.6956 45.5142L86.6546 45.5007H86.611C86.4603 45.5007 86.339 45.6302 86.339 45.7911V46.0029L86.5275 46.0681C86.555 46.078 86.5827 46.0825 86.611 46.0825Z" fill="#828282"/>
<path d="M88.9878 48.7946L94.7358 48.6001L94.6881 50.5866L94.9321 50.5706C95.0799 50.5661 95.2053 50.6794 95.2153 50.8365L95.2755 48.3125C95.2781 48.2339 95.2496 48.1589 95.1979 48.1036C95.1459 48.0483 95.0767 48.008 95.0005 48.0206L88.7146 48.2339C88.5716 48.2384 88.4613 48.3652 88.4605 48.5161L88.9894 48.5206L88.9878 48.7946Z" fill="#828282"/>
<path d="M94.9674 51.1388L94.6747 51.1583L94.6227 53.3736L94.8554 53.3476C95 53.3279 95.1339 53.4449 95.1497 53.6011C95.164 53.7573 95.0578 53.8977 94.9114 53.9146L94.6085 53.9485L94.5583 56.0628L94.6605 56.0467C94.8126 56.0234 94.9423 56.1324 94.9632 56.2878C94.9849 56.4431 94.8829 56.5878 94.7382 56.6109L94.5442 56.6413L94.4956 58.7064L94.6496 58.6761C94.8068 58.6494 94.9347 58.7492 94.9616 58.9037C94.9883 59.0591 94.893 59.2073 94.7482 59.2367L94.4814 59.2894L94.4378 61.1198L94.6454 61.0733C94.7926 61.042 94.9307 61.1421 94.9608 61.2957C94.9709 61.3457 94.9498 61.3876 94.9365 61.4331C94.944 61.4071 94.9648 61.3885 94.9658 61.3609L95.2168 50.8369C95.2258 50.9931 95.1138 51.129 94.9674 51.1388Z" fill="#828282"/>
<path d="M94.6455 61.0736L94.4378 61.1193L94.4319 61.3453C94.4277 61.5033 94.545 61.6339 94.6923 61.6384H94.6981C94.7425 61.6384 94.7751 61.6097 94.8121 61.5891C94.8446 61.5713 94.8739 61.558 94.8974 61.5275C94.9191 61.4999 94.9258 61.4686 94.9368 61.4336C94.9493 61.3882 94.971 61.3453 94.9609 61.2962C94.9308 61.1424 94.7928 61.0414 94.6455 61.0736Z" fill="#828282"/>
<path d="M88.5906 62.4028L88.9137 62.3321L88.9237 60.3956C88.9153 60.3974 88.906 60.3982 88.8968 60.3982C88.7705 60.3982 88.6585 60.3026 88.635 60.1661C88.6075 60.0116 88.7028 59.8625 88.8484 59.8332L88.9269 59.8171L88.9404 57.5198L88.8516 57.5333C88.8392 57.535 88.8249 57.5359 88.8133 57.5359C88.682 57.5359 88.5689 57.4349 88.5488 57.2922C88.528 57.1367 88.6292 56.992 88.7747 56.9689L88.9438 56.9429L88.9562 54.5886L88.9245 54.5923C88.9161 54.5931 88.906 54.594 88.8968 54.594C88.7623 54.594 88.6458 54.4851 88.6318 54.3386C88.6157 54.1824 88.7221 54.0422 88.8693 54.0253L88.9588 54.0146L88.9731 51.5467L88.8299 51.5574C88.8241 51.5574 88.8183 51.5583 88.8133 51.5583C88.6735 51.5583 88.5555 51.4424 88.5464 51.2904C88.538 51.1334 88.6492 50.9986 88.7956 50.9887L88.9763 50.9763L88.989 48.7949L88.7322 48.8039C88.5874 48.8299 88.4611 48.6844 88.4569 48.5281C88.4569 48.5236 88.4611 48.5209 88.4611 48.5164H88.4569L88.3774 62.6803H88.3932C88.3958 62.55 88.4661 62.4304 88.5906 62.4026" fill="#828282"/>
<path d="M88.9138 62.3323L88.5908 62.4028C88.466 62.4305 88.3957 62.5503 88.3931 62.6807L88.9112 62.6844L88.9138 62.3323Z" fill="#828282"/>
<path d="M88.7324 48.8035L88.9894 48.7945L88.991 48.5202L88.4612 48.5166C88.4612 48.5211 88.457 48.5239 88.457 48.5273C88.4612 48.6847 88.5876 48.8294 88.7324 48.8035Z" fill="#828282"/>
<path fill-rule="evenodd" clip-rule="evenodd" d="M88.9385 50.9786L94.6885 50.5867L94.7224 51.1547L88.9724 51.5464L88.9385 50.9786Z" fill="#828282"/>
<path d="M94.9326 50.5702L94.6881 50.5871L94.6741 51.159L94.967 51.1393C95.1135 51.1294 95.2256 50.9937 95.2165 50.8374V50.8363C95.2065 50.6791 95.0809 50.5657 94.9326 50.5702Z" fill="#828282"/>
<path d="M88.7957 50.9885C88.6492 50.9984 88.5371 51.1341 88.5462 51.2904C88.5554 51.4424 88.6736 51.5584 88.8134 51.5584C88.8184 51.5584 88.8242 51.5576 88.8301 51.5576L88.9731 51.5469L88.9765 50.9761L88.7957 50.9885Z" fill="#828282"/>
<path d="M94.6223 53.3738L88.9587 54.0147L88.9563 54.5879L94.608 53.9487L94.6223 53.3735V53.3738Z" fill="#828282"/>
<path d="M94.9107 53.9148C95.058 53.8978 95.1644 53.7576 95.1494 53.6013C95.1343 53.445 94.9995 53.3279 94.8554 53.3476L94.622 53.3744L94.6085 53.9489L94.9107 53.9148Z" fill="#828282"/>
<path d="M88.8685 54.0254C88.7216 54.0423 88.6154 54.1825 88.6314 54.3391C88.6454 54.4855 88.7617 54.5944 88.8959 54.5944C88.9052 54.5944 88.9152 54.5936 88.9236 54.5927L88.9553 54.5891L88.9579 54.0146L88.8685 54.0254Z" fill="#828282"/>
<path d="M94.5575 56.0625L88.9424 56.9428L88.939 57.5196L94.5433 56.6411L94.5575 56.0625Z" fill="#828282"/>
<path d="M94.7374 56.6113C94.8831 56.588 94.9844 56.4432 94.9635 56.2878C94.9416 56.1323 94.8128 56.0234 94.6595 56.0466L94.5574 56.0626L94.5439 56.6416L94.7372 56.6113H94.7374Z" fill="#828282"/>
<path d="M88.7739 56.9688C88.6285 56.992 88.5275 57.1369 88.5484 57.2924C88.5684 57.4343 88.6821 57.5362 88.8123 57.5362C88.8248 57.5362 88.8382 57.5353 88.8516 57.5336L88.9392 57.5201L88.9426 56.9429L88.7739 56.9688Z" fill="#828282"/>
<path d="M94.4811 59.2896L94.4952 58.7065L88.9271 59.8172L88.9236 60.3957C88.9303 60.3949 88.9379 60.3949 88.9463 60.3932L94.4811 59.2896Z" fill="#828282"/>
<path d="M94.7481 59.2371C94.8929 59.2075 94.9883 59.0593 94.9616 58.9039C94.9349 58.7501 94.806 58.6491 94.6496 58.6759L94.4947 58.7064L94.4813 59.2907L94.7481 59.2371Z" fill="#828282"/>
<path d="M88.8476 59.8332C88.7023 59.8626 88.607 60.0118 88.6345 60.1664C88.658 60.3032 88.7698 60.3986 88.8967 60.3986C88.9051 60.3986 88.9143 60.3978 88.9235 60.3961L88.9267 59.8171L88.8476 59.8332Z" fill="#828282"/>
<path d="M83.1167 63.7504V63.4789C83.1167 63.3791 83.1484 63.2897 83.1935 63.2085H67.4998V63.7504H83.1167Z" fill="#828282"/>
<path d="M83.1167 70.5175L67.4998 70.5173V71.0595H83.1927C83.1468 70.9772 83.1167 70.887 83.1167 70.7888V70.5173V70.5175Z" fill="#828282"/>
<path d="M83.5424 42.2817C83.5324 42.3031 83.5113 42.3119 83.4989 42.3316H83.9567L96.9165 45.5075C96.9466 45.5154 96.9635 45.5422 96.9893 45.5593C97.0076 45.5718 97.0337 45.569 97.0487 45.5861C97.0537 45.5923 97.0519 45.6022 97.0569 45.6084C97.0846 45.6431 97.0928 45.6851 97.1029 45.7297C97.1079 45.753 97.1279 45.77 97.1279 45.794L97.0653 53.4643C97.1472 53.4671 97.2258 53.4973 97.2994 53.5421L97.3627 45.7959C97.3646 45.5458 97.2065 45.3279 96.9801 45.2656L83.2625 41.5264C83.2799 41.5362 83.3 41.545 83.3168 41.5549C83.5665 41.6888 83.6678 42.0147 83.5424 42.2817Z" fill="#828282"/>
<path d="M96.7323 61.1727H96.7299C96.5787 61.1719 96.4584 61.0405 96.46 60.8789L96.5803 46.082H95.8708L96.3447 46.2106L96.2252 60.8772C96.2244 61.0486 96.2988 61.2102 96.4265 61.3146C96.5537 61.4174 96.7199 61.4496 96.8745 61.4022L98.3936 60.9271V65.1502L94.8406 66.3699C94.9918 66.3538 95.0596 66.3476 95.1689 66.3386L95.3644 66.3225C96.1616 66.2537 96.8996 66.3707 97.5403 66.5816L98.5506 66.2342V62.6352L99.4079 63.0547V60.204C99.4079 60.0334 99.3327 59.8727 99.2048 59.77C99.077 59.6674 98.9124 59.6353 98.7586 59.6843L97.2455 60.1566L97.2872 55.0889C97.212 54.9978 97.1318 54.905 97.054 54.8131L97.0039 60.8843C97.0023 61.0441 96.8811 61.1727 96.7323 61.1727Z" fill="#828282"/>
<path d="M83.877 70.2466H84.2421L84.0633 71.2064L95.0462 67.4378C94.9976 67.4423 94.9425 67.4477 94.8615 67.4565C94.5881 67.4878 94.3335 67.2701 94.3058 66.9718C94.2865 66.7682 94.3802 66.5852 94.5264 66.4772L84.1318 70.0458V63.9397L86.4874 63.5255C86.7639 63.4762 86.9518 63.1977 86.9051 62.9022C86.9017 62.8799 86.8884 62.8621 86.8834 62.8407V62.9549C86.8834 63.0254 86.8542 63.0852 86.8122 63.1379C86.7998 63.1531 86.7872 63.161 86.7731 63.1737C86.7555 63.1889 86.7447 63.2092 86.723 63.2191C86.6869 63.236 86.6486 63.245 86.6101 63.245C86.5465 63.245 86.4824 63.221 86.4322 63.1737L85.767 62.554L83.5418 62.945C83.389 62.9718 83.2677 63.0736 83.1935 63.2084H83.877V70.2466Z" fill="#828282"/>
<path d="M83.37 63.7507H83.1162V70.2471H83.37V63.7507Z" fill="#828282"/>
<path d="M94.4565 45.5001L87.1844 43.7136L93.737 45.5001H94.4563H94.4565Z" fill="#828282"/>
<path d="M97.0538 54.8135C97.1315 54.9054 97.2116 54.9982 97.2867 55.0884L97.2991 53.5421C97.2258 53.4965 97.1473 53.4671 97.0656 53.4644L97.0538 54.8135Z" fill="#828282"/>
<path d="M82.5988 41.9038C82.5619 42.0566 82.5929 42.2091 82.6681 42.3315H83.4994C83.512 42.3118 83.5329 42.303 83.5429 42.2816C83.6683 42.0146 83.5672 41.6887 83.3173 41.5539C83.3007 41.5449 83.2796 41.535 83.263 41.526L83.2146 41.5127C82.9421 41.4403 82.6681 41.6145 82.5988 41.9038Z" fill="#828282"/>
<path d="M94.3064 66.9713C94.3332 67.2693 94.5889 67.4881 94.8612 67.456C94.9431 67.4472 94.9974 67.4418 95.0467 67.4373L97.54 66.5811C96.9001 66.3704 96.1621 66.2534 95.365 66.3222L95.1687 66.3391C95.0592 66.3479 94.9916 66.3533 94.8412 66.3694L94.527 66.4765C94.3808 66.5856 94.2871 66.7677 94.3064 66.9713Z" fill="#828282"/>
<path d="M83.3714 70.2471H83.1175V70.5177H83.3714V70.2471Z" fill="#828282"/>
<path d="M83.877 70.2468V71.0602H83.1926C83.2277 71.1228 83.2688 71.1817 83.3255 71.2263C83.4132 71.2951 83.5177 71.3298 83.6237 71.3298C83.6757 71.3298 83.7282 71.3219 83.7792 71.3049L84.0633 71.2066L84.2422 70.2468H83.877Z" fill="#828282"/>
<path d="M86.6115 63.2455C86.4609 63.2455 86.3397 63.1151 86.3397 62.9543V62.4567C86.3339 62.4567 86.3289 62.4549 86.3239 62.4558L85.767 62.554L86.4327 63.1741C86.4836 63.2215 86.548 63.2455 86.6115 63.2455Z" fill="#828282"/>
<path d="M86.7229 63.2196C86.7438 63.2097 86.7554 63.1884 86.7731 63.1741C86.7264 63.2125 86.6736 63.2454 86.6101 63.2454C86.6486 63.2454 86.6871 63.2365 86.7229 63.2196Z" fill="#828282"/>
<path d="M82.9061 42.5334C82.9262 42.5416 82.9428 42.5576 82.9647 42.563L87.1842 43.7139L94.4564 45.5003H96.8552C96.9053 45.5003 96.9472 45.5316 96.989 45.5593C96.9639 45.5423 96.9472 45.5147 96.9172 45.5076L83.9574 42.3318H83.4993C83.4033 42.4826 83.2537 42.5799 83.09 42.5799C83.0281 42.5799 82.9663 42.5585 82.9061 42.5336" fill="#828282"/>
<path d="M83.09 42.5803C83.254 42.5803 83.4037 42.483 83.4998 42.332H82.6678C82.7238 42.4232 82.8075 42.4911 82.9062 42.534C82.9672 42.5589 83.0282 42.5803 83.09 42.5803Z" fill="#828282"/>
<path d="M96.856 46.0817H96.5809L96.4594 60.8795C96.4578 61.0402 96.5791 61.1715 96.7305 61.1724H96.7331C96.8811 61.1724 97.0034 61.0438 97.005 60.8848L97.0544 54.8136C96.9313 54.6681 96.81 54.5235 96.6803 54.3744C96.4905 54.1556 96.5014 53.8127 96.7064 53.6092C96.8076 53.5082 96.9381 53.4609 97.066 53.4645L97.1288 45.7933C97.1288 45.7691 97.1096 45.7521 97.1045 45.729C97.112 45.762 97.1305 45.7888 97.127 45.8237C97.1112 45.9701 96.9941 46.0817 96.856 46.0817Z" fill="#828282"/>
<path d="M97.0485 45.5859C97.0327 45.5689 97.0077 45.5717 96.9893 45.5591C97.0127 45.5751 97.0385 45.5859 97.0569 45.6081C97.0519 45.6019 97.0535 45.5921 97.0485 45.5859Z" fill="#828282"/>
<path d="M96.6804 54.3744C96.8101 54.5236 96.9314 54.6682 97.0543 54.8137L97.0661 53.4637C96.938 53.4612 96.8075 53.5083 96.7063 53.6092C96.5013 53.8128 96.4897 54.1556 96.6804 54.3744Z" fill="#828282"/>
<path d="M86.339 62.4563V62.9548C86.339 63.1157 86.4614 63.2452 86.611 63.2452C86.6747 63.2452 86.7276 63.213 86.7744 63.1736C86.7887 63.1611 86.8011 63.1532 86.813 63.138C86.8548 63.0861 86.8841 63.0254 86.8841 62.9548V62.8403C86.8138 62.5867 86.5843 62.4214 86.339 62.4563Z" fill="#828282"/>
<path d="M96.8553 45.5H93.7369L95.8702 46.0814H96.8553C96.9932 46.0814 97.1101 45.9706 97.126 45.8234C97.1294 45.7893 97.1109 45.7616 97.1035 45.7295C97.0925 45.6849 97.0851 45.6429 97.0566 45.6082C97.0392 45.5857 97.0133 45.575 96.989 45.5589C96.9463 45.5321 96.9054 45.5 96.8553 45.5Z" fill="#828282"/>
<path d="M83.1168 63.7504H83.371V70.2468H83.8779V63.2085H83.1937C83.1485 63.2897 83.1168 63.3791 83.1168 63.4789V63.7504Z" fill="#828282"/>
<path d="M83.1168 70.5179V70.7893C83.1168 70.8875 83.1469 70.9778 83.1929 71.0602H83.8784V70.2471H83.3711V70.5177H83.1168V70.5179Z" fill="#828282"/>
<path d="M103.735 65.9911C103.667 66.0232 103.597 66.0384 103.528 66.0384C103.335 66.0384 103.149 65.9189 103.064 65.7179L102.61 64.6216L99.4075 63.0554V65.5447C99.4075 65.7804 99.2656 65.9893 99.0558 66.0607L98.5502 66.2349V67.0277C98.8051 67.175 99.0299 67.3322 99.217 67.4902C99.4352 67.6768 99.4711 68.0179 99.2964 68.2517C99.197 68.3867 99.05 68.4561 98.9004 68.4561C98.7893 68.4561 98.6782 68.4178 98.5845 68.3383C98.5745 68.3295 98.5611 68.3205 98.5502 68.3126V92.2396C98.5829 92.1941 98.6188 92.1502 98.6505 92.1048C98.7734 91.9271 98.9772 91.8556 99.1653 91.8995C99.1785 91.8084 99.2186 91.7227 99.3057 91.6852L99.5656 91.5761V72.3901L99.3474 72.3411C99.2096 72.3106 99.1218 72.1668 99.151 72.0205C99.1795 71.8739 99.3149 71.7794 99.451 71.8116L99.5656 71.8364V64.3233L105.984 67.4642V66.3545L106.938 66.7385L103.996 65.2992C104.094 65.567 103.983 65.8724 103.735 65.9911Z" fill="#828282"/>
<path d="M99.5655 95.428V92.1585L99.5054 92.1836C99.5888 92.3612 99.583 92.58 99.4653 92.7495C99.1745 93.1673 98.8629 93.5753 98.5502 93.9825V97.2798L100.846 95.9022C101.077 95.3958 101.306 94.8878 101.526 94.3709C101.642 94.0986 101.943 93.9816 102.197 94.1022C102.451 94.2254 102.564 94.5469 102.449 94.8192C102.426 94.8745 102.401 94.9281 102.376 94.9825L105.984 92.8174V91.5737L99.5655 95.428Z" fill="#828282"/>
<path d="M102.197 94.1017C101.942 93.9812 101.642 94.0982 101.525 94.3715C101.306 94.8874 101.076 95.3955 100.846 95.9027L102.376 94.9822C102.4 94.9286 102.426 94.8742 102.449 94.8195C102.563 94.5463 102.452 94.226 102.197 94.1017Z" fill="#828282"/>
<path d="M103.064 65.7176C103.15 65.9192 103.334 66.0379 103.528 66.0379C103.597 66.0379 103.668 66.0229 103.735 65.9906C103.983 65.8719 104.094 65.5676 103.995 65.2987L102.61 64.6211L103.064 65.7174V65.7176Z" fill="#828282"/>
<path d="M99.399 92.2077C99.2979 92.2077 99.2027 92.1423 99.1634 92.0362C99.1457 91.9906 99.1592 91.9452 99.1658 91.8987C98.9771 91.855 98.7731 91.9272 98.6502 92.104C98.6185 92.1505 98.5826 92.1933 98.5499 92.2387V93.9817C98.8626 93.5746 99.1742 93.1664 99.465 92.7485C99.5837 92.579 99.5895 92.3611 99.5051 92.1835L99.4917 92.1888C99.4616 92.2012 99.4307 92.2074 99.399 92.2074" fill="#828282"/>
<path d="M98.5845 68.3381C98.6782 68.4176 98.7893 68.4559 98.9004 68.4559C99.05 68.4559 99.197 68.3863 99.2972 68.2515C99.4719 68.0175 99.436 67.6766 99.217 67.49C99.0299 67.3318 98.8051 67.1748 98.5502 67.0273V68.3121C98.5611 68.3203 98.5745 68.3291 98.5845 68.3381Z" fill="#828282"/>
<path d="M98.5502 66.2343L99.0558 66.0603C99.2655 65.989 99.4075 65.7801 99.4075 65.5452V63.0551L98.5502 62.6355V66.2343Z" fill="#828282"/>
<path d="M106.938 66.7385L106.999 66.7679V92.2075L105.984 92.8173V92.8458L107.547 91.9441V66.983L106.938 66.7385Z" fill="#828282"/>
<path d="M106.999 66.7681L106.938 66.7385L105.984 66.3547V73.2749L106.543 73.4001C106.681 73.4303 106.769 73.5749 106.739 73.7215C106.714 73.8481 106.609 73.9366 106.492 73.9366C106.474 73.9366 106.457 73.9338 106.439 73.9304L105.984 73.8286V88.8683L106.398 88.6943C106.528 88.6416 106.676 88.7076 106.727 88.8469C106.778 88.9853 106.715 89.1435 106.585 89.1979L105.984 89.4514V92.8173L106.999 92.2077V66.7681H106.999Z" fill="#828282"/>
<path d="M99.5656 92.1577L105.984 89.4516V88.8677L99.5656 91.5758V92.1577Z" fill="#828282"/>
<path d="M99.3058 91.6849C99.219 91.7224 99.179 91.8081 99.1656 91.8993C99.2341 91.9162 99.3 91.9447 99.3592 91.9921C99.4251 92.044 99.4702 92.112 99.5045 92.1843L99.5654 92.1583V91.5759L99.3058 91.6849Z" fill="#828282"/>
<path d="M99.1656 91.8994C99.159 91.9459 99.1463 91.9914 99.1632 92.0362C99.2023 92.1423 99.2975 92.2086 99.3987 92.2086C99.4303 92.2086 99.4612 92.2024 99.4921 92.1897L99.5047 92.1835C99.4704 92.1113 99.4253 92.0441 99.3594 91.9923C99.3001 91.9451 99.2341 91.9164 99.1656 91.8994Z" fill="#828282"/>
<path d="M106.586 89.1982C106.716 89.1429 106.78 88.9857 106.729 88.8464C106.678 88.7079 106.529 88.6416 106.399 88.6944L105.984 88.8687V89.4521L106.586 89.1982Z" fill="#828282"/>
<path d="M99.5656 72.3899L105.984 73.8282V73.2755L99.5656 71.8364V72.3899Z" fill="#828282"/>
<path d="M99.452 71.811C99.3156 71.7796 99.18 71.8736 99.1514 72.02C99.1223 72.1665 99.2101 72.3112 99.3483 72.3416L99.5667 72.3899V71.8369L99.452 71.811Z" fill="#828282"/>
<path d="M106.44 73.9311C106.458 73.9347 106.475 73.9373 106.492 73.9373C106.61 73.9373 106.716 73.8488 106.741 73.722C106.77 73.5756 106.682 73.4308 106.544 73.4004L105.984 73.2754V73.8292L106.44 73.9311Z" fill="#828282"/>
<path d="M78.85 96.0913L78.8935 96.135L78.8845 96.0913H78.85Z" fill="#828282"/>
<path d="M79.4446 96.0914H79.4045L79.5575 96.8084L86.4149 103.762L86.4159 103.758C86.3774 103.719 86.3331 103.688 86.3072 103.636C86.1777 103.371 86.2737 103.043 86.5212 102.905C86.6231 102.847 86.7199 102.784 86.821 102.727L79.5757 95.3806L79.4446 96.0914Z" fill="#828282"/>
<path d="M86.307 103.636C86.333 103.688 86.3772 103.719 86.4157 103.758L86.5093 103.322C86.5418 103.178 86.674 103.081 86.8133 103.121C86.9513 103.154 87.0349 103.3 87.003 103.445L86.9104 103.876C86.9848 103.849 87.055 103.81 87.1125 103.746C87.2988 103.536 87.2906 103.203 87.0941 103.004L86.821 102.726C86.7199 102.784 86.6228 102.847 86.5209 102.904C86.2737 103.043 86.1776 103.371 86.307 103.636Z" fill="#828282"/>
<path d="M79.5357 95.5494C79.5357 95.7057 79.4724 95.8443 79.3732 95.9435L79.405 96.0917H79.445L79.5757 95.3815L79.43 95.2332C79.4915 95.3226 79.5357 95.4279 79.5357 95.5494Z" fill="#828282"/>
<path d="M78.7814 95.6085C78.7505 95.4628 78.8357 95.3182 78.9727 95.2843C79.1107 95.2513 79.2442 95.3432 79.2761 95.4887L79.373 95.9432C79.4724 95.8442 79.536 95.705 79.536 95.5496C79.536 95.4281 79.4925 95.3227 79.4297 95.2325C79.4089 95.2022 79.3772 95.1834 79.3513 95.1575C79.1524 94.9736 78.8558 94.9826 78.6727 95.1879C78.4864 95.3977 78.4948 95.7298 78.6912 95.9289L78.85 96.0915H78.8843L78.7814 95.6085Z" fill="#828282"/>
<path d="M79.3509 95.1575C79.3766 95.1836 79.4084 95.2023 79.4299 95.2329L79.3667 95.1682C79.3625 95.1637 79.3559 95.1629 79.3509 95.1575Z" fill="#828282"/>
<path d="M79.4059 96.0913H78.8843L78.8936 96.1351L79.5592 96.8087L79.4059 96.0913Z" fill="#828282"/>
<path d="M86.8148 103.121C86.675 103.081 86.5426 103.178 86.51 103.323L86.4154 103.759C86.4196 103.762 86.423 103.768 86.4271 103.772C86.5209 103.862 86.638 103.909 86.7578 103.909C86.8098 103.909 86.8608 103.893 86.911 103.876L87.0047 103.446C87.0366 103.3 86.952 103.154 86.8148 103.121Z" fill="#828282"/>
<path d="M79.0288 96.0919H79.4046L79.373 95.9431C79.2828 96.0337 79.1625 96.0919 79.0288 96.0919Z" fill="#828282"/>
<path d="M79.2768 95.4889C79.245 95.3433 79.111 95.2504 78.9738 95.2843C78.8364 95.3182 78.7502 95.4629 78.7811 95.6087L78.8842 96.092H79.0291C79.1629 96.092 79.2834 96.0331 79.3738 95.9437L79.2768 95.4889Z" fill="#828282"/>
<path d="M66.7973 39.0868C66.7973 39.0868 67.8918 39.0814 68.2427 39.0868C68.5936 39.093 67.8659 38.0019 67.8659 38.0019C67.8659 38.0019 67.2836 37.9976 66.9551 38.0019C66.6276 38.0055 66.7973 39.0868 66.7973 39.0868Z" fill="#828282"/>
</svg>